# Export of Cubik Model: Cubik Model
# Designed by Sawors
# from Cubik OBJ Exporter v1.0
mtllib coal_block.mtl
v -8 16 -8 1 1 1
v 0 -2.384186E-07 4.768372E-07 1 1 1
v -16 -2.384186E-07 4.768372E-07 1 1 1
v -8 16 -8 1 1 1
v 0 -2.384186E-07 -16 1 1 1
v 0 -2.384186E-07 4.768372E-07 1 1 1
v -8 16 -8 1 1 1
v -16 -2.384186E-07 -16 1 1 1
v 0 -2.384186E-07 -16 1 1 1
v -8 16 -8 1 1 1
v -16 -2.384186E-07 4.768372E-07 1 1 1
v -16 -2.384186E-07 -16 1 1 1
v -16 -2.384186E-07 4.768372E-07 1 1 1
v 0 -2.384186E-07 4.768372E-07 1 1 1
v -8 -2.384186E-07 -8 1 1 1
v 0 -2.384186E-07 -16 1 1 1
v -16 -2.384186E-07 -16 1 1 1
vn 0 0.4472136 0.8944272
vn 0.8944272 0.4472136 0
vn 0 0.4472136 -0.8944272
vn -0.8944272 0.4472136 0
vn 0 -1 0
vt 0.4683822 0.9981927
vt 0.6221294 0.6894763
vt 0.3146349 0.6894763
vt 0.7816854 1
vt 0.9367163 0.6886562
vt 0.6266546 0.6886562
vt 0.1562923 0.6852363
vt 0.3100396 0.3765199
vt 0.002545074 0.3765199
vt 0.1551397 1
vt 0.3102794 0.6895779
vt 0 0.6895779
vt 0.628401 0.6852934
vt 0.9356243 0.6852934
vt 0.7820126 0.53084
vt 0.9356243 0.3763865
vt 0.628401 0.3763865
g Pyramid
usemtl primitive (Instance)
f 3/3/1 2/2/1 1/1/1
f 6/6/2 5/5/2 4/4/2
f 9/9/3 8/8/3 7/7/3
f 12/12/4 11/11/4 10/10/4
f 15/15/5 14/14/5 13/13/5
f 15/15/5 16/16/5 14/14/5
f 15/15/5 17/17/5 16/16/5
f 15/15/5 13/13/5 17/17/5
